<svg xmlns="http://www.w3.org/2000/svg" width="45.442" height="45.443" viewBox="0 0 45.442 45.443">
  <path id="facebook" d="M867.426,5581.7H832.634a5.331,5.331,0,0,0-5.325,5.326v34.791a5.332,5.332,0,0,0,5.325,5.326h34.792a5.331,5.331,0,0,0,5.325-5.326v-34.791A5.331,5.331,0,0,0,867.426,5581.7Zm1.775,40.117a1.777,1.777,0,0,1-1.775,1.775H856.953v-12.958h5.683l.662-5.5h-6.345v-5.946a2.6,2.6,0,0,1,2.663-2.663h3.994v-5.147a39.34,39.34,0,0,0-3.994-.355,8.221,8.221,0,0,0-5.693,2.4,8.085,8.085,0,0,0-2.473,5.786v5.93h-5.769v5.5h5.769V5623.6H832.634a1.778,1.778,0,0,1-1.775-1.775v-34.791a1.778,1.778,0,0,1,1.775-1.776h34.792a1.777,1.777,0,0,1,1.775,1.776Z" transform="translate(-827.309 -5581.703)" fill="#fff"/>
</svg>
