<svg xmlns="http://www.w3.org/2000/svg" width="45.441" height="45.442" viewBox="0 0 45.441 45.442">
  <path id="insta" d="M959.819,5627.566h-.452c-3.562.009-6.853-.082-10.054-.277a13.437,13.437,0,0,1-7.747-2.932,12.438,12.438,0,0,1-4.178-6.746,29.922,29.922,0,0,1-.686-7.137c-.023-1.659-.046-3.625-.051-5.624s.028-3.973.051-5.632a29.93,29.93,0,0,1,.686-7.138,12.443,12.443,0,0,1,4.178-6.746,13.437,13.437,0,0,1,7.747-2.932c3.2-.195,6.493-.285,10.063-.277s6.853.082,10.053.277a13.434,13.434,0,0,1,7.747,2.932,12.432,12.432,0,0,1,4.178,6.746,29.826,29.826,0,0,1,.686,7.138c.023,1.659.047,3.624.052,5.623s-.029,3.974-.052,5.633a1.775,1.775,0,0,1-3.55-.049c.023-1.649.047-3.6.051-5.584s-.028-3.926-.051-5.575a27.161,27.161,0,0,0-.575-6.308,8.968,8.968,0,0,0-2.982-4.872,9.777,9.777,0,0,0-5.719-2.141c-3.126-.19-6.343-.277-9.838-.27s-6.722.08-9.847.27a9.782,9.782,0,0,0-5.719,2.14,8.965,8.965,0,0,0-2.982,4.873,27.215,27.215,0,0,0-.576,6.308c-.022,1.649-.046,3.6-.051,5.584s.029,3.926.051,5.575a27.228,27.228,0,0,0,.576,6.309,8.966,8.966,0,0,0,2.982,4.872,9.782,9.782,0,0,0,5.719,2.14c3.125.19,6.344.279,9.838.27,3.5.008,6.721-.08,9.847-.27a9.782,9.782,0,0,0,5.719-2.14,8.543,8.543,0,0,0,2.437-3.265,1.775,1.775,0,0,1,3.257,1.411,12.032,12.032,0,0,1-3.451,4.6,13.434,13.434,0,0,1-7.747,2.932C966.364,5627.475,963.216,5627.566,959.819,5627.566Zm10.558-22.721a11.095,11.095,0,1,0-11.1,11.094A11.107,11.107,0,0,0,970.377,5604.845Zm-3.551,0a7.544,7.544,0,1,1-7.544-7.544A7.553,7.553,0,0,1,966.826,5604.845Zm4.793-14.645a2.662,2.662,0,1,0,2.663,2.663A2.662,2.662,0,0,0,971.619,5590.2Z" transform="translate(-936.651 -5582.124)" fill="#fff"/>
</svg>
