<svg xmlns="http://www.w3.org/2000/svg" width="45.442" height="45.442" viewBox="0 0 45.442 45.442">
  <path id="linkedin" d="M1061.45,5619.706h-6.213v-20.059h6.213Zm.62-26.449a3.638,3.638,0,1,0-3.637,3.639A3.639,3.639,0,0,0,1062.07,5593.257Zm22.633,15.414c0-5.385-1.138-9.379-7.428-9.379a6.447,6.447,0,0,0-5.879,3.084h-.006v-2.729h-6.035v20.059h6.035v-9.959c0-2.609.664-5.135,3.9-5.135,3.189,0,3.292,2.982,3.292,5.3v9.794h6.124Zm7.988,13.609v-34.792a5.331,5.331,0,0,0-5.325-5.325h-34.792a5.33,5.33,0,0,0-5.325,5.325v34.792a5.331,5.331,0,0,0,5.325,5.325h34.792A5.331,5.331,0,0,0,1092.691,5622.28Zm-5.325-36.567a1.777,1.777,0,0,1,1.775,1.775v34.792a1.778,1.778,0,0,1-1.775,1.775h-34.792a1.777,1.777,0,0,1-1.775-1.775v-34.792a1.777,1.777,0,0,1,1.775-1.775Z" transform="translate(-1047.249 -5582.163)" fill="#fff"/>
</svg>
