<svg xmlns="http://www.w3.org/2000/svg" width="22.662" height="22.661" viewBox="0 0 22.662 22.661">
  <path id="message" d="M103.255,6188.561H85.449a2.428,2.428,0,0,0-2.428,2.428v12.949a2.428,2.428,0,0,0,2.428,2.428h2.874l-.441,3.958a.81.81,0,0,0,1.346.69l5.165-4.648h8.862a2.428,2.428,0,0,0,2.428-2.428v-12.949A2.428,2.428,0,0,0,103.255,6188.561Zm.809,15.377a.809.809,0,0,1-.809.809H94.083a.809.809,0,0,0-.542.208l-3.815,3.434.305-2.743a.809.809,0,0,0-.715-.894.889.889,0,0,0-.089,0H85.449a.809.809,0,0,1-.809-.809v-12.949a.809.809,0,0,1,.809-.81h17.806a.809.809,0,0,1,.809.81v12.949Z" transform="translate(-83.021 -6188.561)" fill="#e50019"/>
</svg>
